/* XPM */
static char * wordview_xpm[] = {
"48 48 280 2",
"  	c None",
". 	c #D7D7CF",
"+ 	c #EFEBDF",
"@ 	c #E7E7DF",
"# 	c #E7E3D7",
"$ 	c #DFDFD7",
"% 	c #DFDBD7",
"& 	c #DFD7CF",
"* 	c #D7D3C7",
"= 	c #D7CFC7",
"- 	c #CFCFC7",
"; 	c #CFCBBE",
"> 	c #CFC7BE",
", 	c #C7C7BE",
"' 	c #C7C3BE",
") 	c #C7BEB6",
"! 	c #BDBDB5",
"~ 	c #BCB8B4",
"{ 	c #BBB7AB",
"] 	c #B6AEA7",
"^ 	c #9B9B94",
"/ 	c #BEBEB6",
"( 	c #BEBAB6",
"_ 	c #BCB8AC",
": 	c #B9B1A9",
"< 	c #AEAEA6",
"[ 	c #A9A6A2",
"} 	c #A4A196",
"| 	c #83807C",
"1 	c #B6B2B6",
"2 	c #000000",
"3 	c #7C7C7C",
"4 	c #A39C95",
"5 	c #918A83",
"6 	c #96938F",
"7 	c #9B9894",
"8 	c #979489",
"9 	c #9C988D",
"0 	c #909089",
"a 	c #95958D",
"b 	c #908D89",
"c 	c #95918D",
"d 	c #8F8C88",
"e 	c #94908D",
"f 	c #8F8881",
"g 	c #E7DFD7",
"h 	c #080808",
"i 	c #F9F9F9",
"j 	c #FDFDFD",
"k 	c #0C0C0C",
"l 	c #D0D0D0",
"m 	c #FFFFFF",
"n 	c #CFCFCF",
"o 	c #958D86",
"p 	c #898982",
"q 	c #C4C4C4",
"r 	c #404040",
"s 	c #111111",
"t 	c #0F0F0F",
"u 	c #3F3F3F",
"v 	c #8D8D86",
"w 	c #898682",
"x 	c #868686",
"y 	c #757575",
"z 	c #4E4E4E",
"A 	c #DDDDDD",
"B 	c #4B4B4B",
"C 	c #747474",
"D 	c #8D8A86",
"E 	c #494949",
"F 	c #ABABAB",
"G 	c #8E8E8E",
"H 	c #595959",
"I 	c #898989",
"J 	c #A9A9A9",
"K 	c #88827B",
"L 	c #DFDBCF",
"M 	c #0E0E0E",
"N 	c #FCFCFC",
"O 	c #E0E0E0",
"P 	c #CDCDCD",
"Q 	c #E5E5E5",
"R 	c #010101",
"S 	c #E6E6E6",
"T 	c #C8C8C8",
"U 	c #8D867F",
"V 	c #827E7B",
"W 	c #252525",
"X 	c #A0A0A0",
"Y 	c #A1A1A1",
"Z 	c #FAFAFA",
"` 	c #1E1E1E",
" .	c #86837F",
"..	c #827F7B",
"+.	c #909090",
"@.	c #989898",
"#.	c #5B5B5B",
"$.	c #5C5C5C",
"%.	c #8B8B8B",
"&.	c #8F8F8F",
"*.	c #827B7B",
"=.	c #525252",
"-.	c #F7F7F7",
";.	c #FEFEFE",
">.	c #161616",
",.	c #171717",
"'.	c #F0F0F0",
").	c #515151",
"!.	c #86827E",
"~.	c #7B7B74",
"{.	c #151515",
"].	c #D1D1D1",
"^.	c #7E7E77",
"/.	c #7A7773",
"(.	c #D7D7D7",
"_.	c #8A8A8A",
":.	c #D6D6D6",
"<.	c #7E7A77",
"[.	c #7B7774",
"}.	c #7D7976",
"|.	c #797373",
"1.	c #7C7575",
"2.	c #797272",
"3.	c #7B7474",
"4.	c #C6C6BD",
"5.	c #C7C3B6",
"6.	c #959195",
"7.	c #555955",
"8.	c #7A7373",
"9.	c #787171",
"0.	c #B3AFA3",
"a.	c #C3BFB2",
"b.	c #BABAB2",
"c.	c #BBB7B3",
"d.	c #BAB2AA",
"e.	c #B1B1A9",
"f.	c #B1ADA9",
"g.	c #B0ACA0",
"h.	c #A8A8A0",
"i.	c #A9A5A1",
"j.	c #A9A199",
"k.	c #A19D99",
"l.	c #A29E9A",
"m.	c #A09991",
"n.	c #999591",
"o.	c #9A9692",
"p.	c #918D8A",
"q.	c #918A8A",
"r.	c #898981",
"s.	c #87837F",
"t.	c #85817D",
"u.	c #817A7A",
"v.	c #7D7676",
"w.	c #767070",
"x.	c #64645D",
"y.	c #9B978C",
"z.	c #B2AEAA",
"A.	c #B2AEA3",
"B.	c #A9A9A2",
"C.	c #A8A499",
"D.	c #A7A098",
"E.	c #9F9F98",
"F.	c #AF7B6F",
"G.	c #A78A82",
"H.	c #A19992",
"I.	c #918D82",
"J.	c #A76F68",
"K.	c #997C6F",
"L.	c #91918A",
"M.	c #98918A",
"N.	c #9F6B60",
"O.	c #987B6F",
"P.	c #8A8682",
"Q.	c #928A8A",
"R.	c #6F6F68",
"S.	c #83837C",
"T.	c #899458",
"U.	c #96BB23",
"V.	c #8A9B3F",
"W.	c #766F6F",
"X.	c #726B6B",
"Y.	c #5F5F59",
"Z.	c #585852",
"`.	c #536B67",
" +	c #888561",
".+	c #9D9D96",
"++	c #9D9A96",
"@+	c #9C988E",
"#+	c #9D968F",
"$+	c #94948D",
"%+	c #96928F",
"&+	c #95928E",
"*+	c #8F8F88",
"=+	c #8E8B87",
"-+	c #8E8780",
";+	c #888481",
">+	c #86827F",
",+	c #888181",
"'+	c #878080",
")+	c #817D7A",
"!+	c #807D79",
"~+	c #807979",
"{+	c #7A7A73",
"]+	c #75726E",
"^+	c #73706C",
"/+	c #6E6868",
"(+	c #6D6767",
"_+	c #5A5A53",
":+	c #415252",
"<+	c #415353",
"[+	c #414441",
"}+	c #41413B",
"|+	c #4D4D47",
"1+	c #726F6C",
"2+	c #726D61",
"3+	c #4E4E48",
"4+	c #5C5C55",
"5+	c #79766D",
"6+	c #79796D",
"7+	c #5B5B54",
"8+	c #6C655B",
"9+	c #78786C",
"0+	c #72726C",
"a+	c #55554E",
"b+	c #5C5855",
"c+	c #4E4A48",
"d+	c #53504D",
"e+	c #524F4B",
"f+	c #4B4B45",
"g+	c #52524C",
"h+	c #525652",
"i+	c #69695F",
"j+	c #696259",
"k+	c #535653",
"l+	c #5F5C52",
"m+	c #706960",
"n+	c #706A6A",
"o+	c #595952",
"p+	c #5D5F57",
"q+	c #515956",
"r+	c #7F7F78",
"s+	c #85857F",
"t+	c #938F85",
"u+	c #928B84",
"v+	c #8D8D87",
"w+	c #8D8986",
"x+	c #8D8B80",
"y+	c #86867F",
"z+	c #878480",
"A+	c #867F79",
"B+	c #7E7C78",
"C+	c #807C79",
"D+	c #7F7979",
"E+	c #797773",
"F+	c #797673",
"G+	c #79736D",
"H+	c #73736D",
"I+	c #6E6C68",
"J+	c #696663",
"K+	c #5E5E55",
"L+	c #605F58",
"M+	c #544F4B",
"N+	c #596259",
"O+	c #878E87",
"P+	c #8E8E87",
"Q+	c #9C998F",
"R+	c #9A938D",
"S+	c #95958F",
"T+	c #949287",
"U+	c #969389",
"V+	c #8F8B88",
"W+	c #8E8B80",
"X+	c #898282",
"Y+	c #817A73",
"Z+	c #797972",
"`+	c #76736F",
" @	c #6F6B69",
".@	c #6E6C63",
"+@	c #54504C",
"@@	c #56524E",
"                                                                                                ",
"                                                                                                ",
"                                                                                                ",
"                                                                                                ",
"                                                                                                ",
"                                                                                                ",
"                                                                                                ",
"                                                                                                ",
"              . + + + + + @ @ # # $ $ % & . . * = - ; ; > , ' ) ! ~ { ] ^                       ",
"            . + + + + + @ @ # # $ $ % & . . * - - ; ; > , ' ) / ( _ : < [ } |                   ",
"            + + 1 2 2 2 2 2 2 2 2 2 2 2 2 2 2 2 2 2 2 2 2 2 2 2 2 2 2 2 3 4 5                   ",
"            + + 2 2 2 2 2 2 2 2 2 2 2 2 2 2 2 2 2 2 2 2 2 2 2 2 2 2 2 2 2 4 6                   ",
"            + + 2 2 2 2 2 2 2 2 2 2 2 2 2 2 2 2 2 2 2 2 2 2 2 2 2 2 2 2 2 7 8 2                 ",
"            + + 2 2 2 2 2 2 2 2 2 2 2 2 2 2 2 2 2 2 2 2 2 2 2 2 2 2 2 2 2 9 0 2                 ",
"            + @ 2 2 2 2 2 2 2 2 2 2 2 2 2 2 2 2 2 2 2 2 2 2 2 2 2 2 2 2 2 a b 2                 ",
"            @ @ 2 2 2 2 2 2 2 2 2 2 2 2 2 2 2 2 2 2 2 2 2 2 2 2 2 2 2 2 2 c d 2                 ",
"            # # 2 2 2 2 2 2 2 2 2 2 2 2 2 2 2 2 2 2 2 2 2 2 2 2 2 2 2 2 2 e f 2                 ",
"            # g 2 2 2 2 2 2 2 2 h i j k 2 2 l m n 2 2 k j 2 2 2 2 2 2 2 2 o p 2                 ",
"            g $ 2 2 2 2 2 2 2 2 2 q m r 2 s j m j t 2 u m 2 2 2 2 2 2 2 2 v w 2 2               ",
"            $ % 2 2 2 2 2 2 2 2 2 x m y 2 z m A m B 2 C m 2 2 2 2 2 2 2 2 D w 2 2               ",
"            % $ 2 2 2 2 2 2 2 2 2 E m F 2 G m H m I 2 J m 2 2 2 2 2 2 2 2 D K 2 2               ",
"            L . 2 2 2 2 2 2 2 2 2 M N O 2 P Q R S T 2 A N 2 2 2 2 2 2 2 2 U V 2 2               ",
"            . . 2 2 2 2 2 2 2 2 2 2 P m W j X 2 Y Z ` m P 2 2 2 2 2 2 2 2  ...2 2               ",
"            . * 2 2 2 2 2 2 2 2 2 2 +.m @.m #.2 $.m %.m &.2 2 2 2 2 2 2 2  .*.2 2               ",
"            * = 2 2 2 2 2 2 2 2 2 2 =.m -.;.>.2 ,.;.'.m ).2 2 2 2 2 2 2 2 !.~.2 2               ",
"            = - 2 2 2 2 2 2 2 2 2 2 {.m m l 2 2 2 ].m m {.2 2 2 2 2 2 2 2 ^./.2 2               ",
"            - ; 2 2 2 2 2 2 2 2 2 2 2 (.m _.2 2 2 %.m :.2 2 2 2 2 2 2 2 2 <.[.2 2               ",
"            ; ; 2 2 2 2 2 2 2 2 2 2 2 2 2 2 2 2 2 2 2 2 2 2 2 2 2 2 2 2 2 }.|.2 2               ",
"            ; > 2 2 2 2 2 2 2 2 2 2 2 2 2 2 2 2 2 2 2 2 2 2 2 2 2 2 2 2 2 1.2.2 2               ",
"            > , 2 2 2 2 2 2 2 2 2 2 2 2 2 2 2 2 2 2 2 2 2 2 2 2 2 2 2 2 2 3.2.2 2               ",
"            4.5.6.2 2 2 2 2 2 2 2 2 2 2 2 2 2 2 2 2 2 2 2 2 2 2 2 2 2 2 7.8.9.2 2               ",
"            0.a.b.c.{ d.e.f.g.g.h.[ i.j.k.k.l.m.n.n.o.p.p.p.q.r.s.t.u.v.8.w.x.2 2               ",
"              y.z.A.B.B.i.C.D.E.F.G.H.I.J.K.L.M.N.O.P.Q...R.S.T.U.V.2.W.X.Y.Z.2 2               ",
"                `. +.+.+++@+#+$+%+&+*+=+=+d -+;+>+,+'+)+!+~+{+]+^+/+(+_+:+<+2 2 2               ",
"                    2 2 2 [+}+|+1+2+3+4+5+6+7+8+9+0+a+b+4+c+d+2 2 2 2 2 2 2 2 2 2               ",
"                        2 e+f+Y.Y.g+g+Y.Y.h+Y.i+j+k+l+m+n+o+p+2 2 2 2 2 2 2 2 2                 ",
"                  q+r+s+t+u+v+w+x+y+z+ . .A+B+C+D+E+F+/.G+H+I+J+K+L+M+2 2 2 2                   ",
"                  N+O+P+Q+R+S+T+U+P+P+V+W+f  .;+'+X+!+!+Y+Z+`+ @.@+@@@2                         ",
"                            2 2 2 2 2 2 2 2 2 2 2 2 2 2 2 2 2 2 2 2                             ",
"                                  2 2 2 2 2 2 2 2 2 2 2 2 2 2                                   ",
"                                                                                                ",
"                                                                                                ",
"                                                                                                ",
"                                                                                                ",
"                                                                                                ",
"                                                                                                ",
"                                                                                                ",
"                                                                                                "};
